<svg width="1200" height="900" viewBox="0 0 1200 900" fill="none" xmlns="http://www.w3.org/2000/svg">
  <rect width="1200" height="900" rx="48" fill="url(#bg)"/>
  <g filter="url(#blur1)">
    <circle cx="946" cy="170" r="170" fill="#4FD1A5" fill-opacity="0.28"/>
  </g>
  <g filter="url(#blur2)">
    <circle cx="220" cy="180" r="150" fill="#60A5FA" fill-opacity="0.22"/>
  </g>
  <rect x="56" y="56" width="1088" height="788" rx="36" fill="rgba(255,255,255,0.76)"/>
  <rect x="56" y="56" width="1088" height="788" rx="36" stroke="rgba(255,255,255,0.75)" stroke-width="2"/>
  <rect x="92" y="92" width="220" height="716" rx="28" fill="#F7FAFC"/>
  <rect x="120" y="130" width="124" height="20" rx="10" fill="#0F172A" fill-opacity="0.88"/>
  <rect x="120" y="190" width="164" height="56" rx="18" fill="url(#accent)"/>
  <rect x="120" y="270" width="164" height="56" rx="18" fill="#E2E8F0"/>
  <rect x="120" y="350" width="164" height="56" rx="18" fill="#E2E8F0"/>
  <rect x="120" y="430" width="164" height="56" rx="18" fill="#E2E8F0"/>
  <rect x="348" y="92" width="760" height="98" rx="28" fill="#FFFFFF"/>
  <rect x="386" y="126" width="230" height="18" rx="9" fill="#0F172A" fill-opacity="0.92"/>
  <rect x="888" y="120" width="176" height="42" rx="21" fill="#DCFCE7"/>
  <rect x="348" y="222" width="356" height="236" rx="30" fill="#FFFFFF"/>
  <rect x="386" y="262" width="126" height="16" rx="8" fill="#64748B" fill-opacity="0.45"/>
  <rect x="386" y="300" width="228" height="26" rx="13" fill="#0F172A" fill-opacity="0.9"/>
  <rect x="386" y="346" width="280" height="14" rx="7" fill="#CBD5E1"/>
  <rect x="386" y="372" width="238" height="14" rx="7" fill="#CBD5E1"/>
  <rect x="386" y="412" width="196" height="28" rx="14" fill="url(#accent)"/>
  <rect x="736" y="222" width="372" height="236" rx="30" fill="#FFFFFF"/>
  <path d="M780 390C824 334 865 342 912 306C959 270 1011 286 1066 232" stroke="url(#line)" stroke-width="18" stroke-linecap="round"/>
  <circle cx="782" cy="388" r="18" fill="#22C55E"/>
  <circle cx="912" cy="306" r="18" fill="#3B82F6"/>
  <circle cx="1066" cy="232" r="18" fill="#8B5CF6"/>
  <rect x="348" y="492" width="760" height="316" rx="30" fill="#FFFFFF"/>
  <rect x="386" y="532" width="180" height="16" rx="8" fill="#64748B" fill-opacity="0.4"/>
  <rect x="386" y="574" width="322" height="22" rx="11" fill="#0F172A" fill-opacity="0.9"/>
  <rect x="386" y="628" width="160" height="116" rx="24" fill="#F8FAFC"/>
  <rect x="572" y="628" width="160" height="116" rx="24" fill="#F8FAFC"/>
  <rect x="758" y="628" width="160" height="116" rx="24" fill="#F8FAFC"/>
  <rect x="944" y="628" width="124" height="116" rx="24" fill="url(#accentSoft)"/>
  <defs>
    <filter id="blur1" x="636" y="-140" width="620" height="620" filterUnits="userSpaceOnUse" color-interpolation-filters="sRGB">
      <feGaussianBlur stdDeviation="70"/>
    </filter>
    <filter id="blur2" x="-70" y="-110" width="580" height="580" filterUnits="userSpaceOnUse" color-interpolation-filters="sRGB">
      <feGaussianBlur stdDeviation="70"/>
    </filter>
    <linearGradient id="bg" x1="120" y1="60" x2="1090" y2="850" gradientUnits="userSpaceOnUse">
      <stop stop-color="#ECFDF5"/>
      <stop offset="0.5" stop-color="#EFF6FF"/>
      <stop offset="1" stop-color="#F5F3FF"/>
    </linearGradient>
    <linearGradient id="accent" x1="120" y1="190" x2="340" y2="430" gradientUnits="userSpaceOnUse">
      <stop stop-color="#22A96B"/>
      <stop offset="1" stop-color="#0EA5A4"/>
    </linearGradient>
    <linearGradient id="accentSoft" x1="944" y1="628" x2="1080" y2="748" gradientUnits="userSpaceOnUse">
      <stop stop-color="#D1FAE5"/>
      <stop offset="1" stop-color="#BFDBFE"/>
    </linearGradient>
    <linearGradient id="line" x1="780" y1="390" x2="1066" y2="232" gradientUnits="userSpaceOnUse">
      <stop stop-color="#22C55E"/>
      <stop offset="0.5" stop-color="#3B82F6"/>
      <stop offset="1" stop-color="#8B5CF6"/>
    </linearGradient>
  </defs>
</svg>
